<?xml version="1.0" encoding="UTF-8" standalone="no"?>
<!-- Created with Inkscape (http://www.inkscape.org/) -->

<svg
   xmlns:dc="http://purl.org/dc/elements/1.1/"
   xmlns:cc="http://creativecommons.org/ns#"
   xmlns:rdf="http://www.w3.org/1999/02/22-rdf-syntax-ns#"
   xmlns:svg="http://www.w3.org/2000/svg"
   xmlns="http://www.w3.org/2000/svg"
   xmlns:sodipodi="http://sodipodi.sourceforge.net/DTD/sodipodi-0.dtd"
   xmlns:inkscape="http://www.inkscape.org/namespaces/inkscape"
   width="210mm"
   height="297mm"
   viewBox="0 0 210 297"
   version="1.1"
   id="svg8"
   inkscape:export-filename="D:\Unity Projects\Balerina\Balerina\Assets\sprites\floor.png"
   inkscape:export-xdpi="96"
   inkscape:export-ydpi="96"
   inkscape:version="0.92.2 (5c3e80d, 2017-08-06)"
   sodipodi:docname="floor.svg">
  <defs
     id="defs2" />
  <sodipodi:namedview
     id="base"
     pagecolor="#ffffff"
     bordercolor="#666666"
     borderopacity="1.0"
     inkscape:pageopacity="0.0"
     inkscape:pageshadow="2"
     inkscape:zoom="1.979899"
     inkscape:cx="145.3247"
     inkscape:cy="429.532"
     inkscape:document-units="mm"
     inkscape:current-layer="g826"
     showgrid="false"
     inkscape:window-width="3840"
     inkscape:window-height="2050"
     inkscape:window-x="3348"
     inkscape:window-y="-12"
     inkscape:window-maximized="1" />
  <metadata
     id="metadata5">
    <rdf:RDF>
      <cc:Work
         rdf:about="">
        <dc:format>image/svg+xml</dc:format>
        <dc:type
           rdf:resource="http://purl.org/dc/dcmitype/StillImage" />
        <dc:title></dc:title>
      </cc:Work>
    </rdf:RDF>
  </metadata>
  <g
     inkscape:label="Layer 1"
     inkscape:groupmode="layer"
     id="layer1">
    <g
       id="g826"
       inkscape:export-xdpi="96"
       inkscape:export-ydpi="96">
      <path
         style="fill:#514d47;stroke-width:0.26458332;fill-opacity:1"
         d="m 37.920462,119.54746 c -0.260099,-0.0999 -0.330729,-3.97173 -0.330729,-18.13018 V 83.414076 l 20.571353,0.180915 c 24.420991,0.214772 47.361384,0.205865 50.876844,-0.01975 1.38833,-0.0891 5.70435,-0.07367 9.59115,0.03429 l 7.0669,0.196289 v 17.80108 c 0,16.04302 -0.0416,17.81705 -0.4216,17.96285 -0.49161,0.18865 -86.86192,0.16662 -87.353918,-0.0223 z"
         id="path842"
         inkscape:connector-curvature="0" />
      <path
         style="fill:#3f3736;stroke-width:0.26458332;fill-opacity:1"
         d="M 37.589733,101.84271 V 84.485417 l 6.762933,0.128645 c 5.29407,0.100705 7.027173,0.04912 7.97955,-0.237502 1.557059,-0.468606 2.725508,-0.465153 3.403971,0.01006 0.508407,0.356102 7.718009,0.612019 18.829066,0.66837 2.104136,0.01067 2.711979,0.09445 2.711979,0.373775 0,0.231271 0.449445,0.415667 1.25677,0.515623 0.691224,0.08558 1.641206,0.235606 2.111068,0.33339 0.760992,0.158371 0.88441,0.09858 1.130041,-0.547478 0.275746,-0.725267 0.275746,-0.725267 14.491536,-0.568204 7.818683,0.08638 17.638843,0.16025 21.822563,0.164147 l 7.60677,0.0071 V 102.26667 119.2 H 81.642856 37.589733 Z M 117.50444,87.709201 c 0.66903,-0.341314 1.04779,-0.717442 1.04779,-1.040504 0,-0.833353 -0.94253,-0.936873 -3.60884,-0.396367 -0.75313,0.152672 -0.93843,0.724868 -0.45724,1.411873 0.50314,0.718327 1.64078,0.727748 3.01829,0.025 z"
         id="path840"
         inkscape:connector-curvature="0" />
      <path
         style="fill:#282522;stroke-width:0.26458332;fill-opacity:1"
         d="m 37.589733,105.32415 c 0,-10.841482 0.07205,-13.890382 0.330729,-13.99476 0.264583,-0.106762 0.264583,-0.13763 0,-0.15434 -0.204572,-0.01292 -0.330729,-0.415119 -0.330729,-1.054394 0,-1.033505 0,-1.033505 1.256771,-1.193159 4.368127,-0.554903 48.923383,-0.567242 53.057852,-0.01469 0.550592,0.07358 1.235202,0.0085 1.521354,-0.144653 0.335936,-0.179788 0.686136,-0.189673 0.988409,-0.0279 0.257477,0.137797 1.876557,0.369429 3.597957,0.514737 2.470764,0.208564 3.304614,0.1907 3.959914,-0.08483 0.59355,-0.249565 0.9752,-0.271381 1.33924,-0.07655 0.52102,0.278841 7.26126,0.09622 11.80142,-0.31974 1.37127,-0.125635 2.31065,-0.107965 2.40705,0.04528 0.087,0.13823 0.5632,0.222514 1.05833,0.187297 0.49514,-0.03522 2.29923,-0.04263 4.0091,-0.01649 3.10885,0.04755 3.10885,0.04755 3.10885,1.08383 0,0.581464 -0.14516,1.094856 -0.33073,1.169736 -0.26458,0.106762 -0.26458,0.13763 0,0.154341 0.26012,0.01643 0.33073,2.986429 0.33073,13.910955 v 13.89006 l -44.053124,-0.007 -44.053123,-0.007 z M 74.499107,91.821812 c 3.201458,-0.07445 8.410442,-0.136071 11.57552,-0.136927 3.40855,-9.26e-4 5.754687,-0.102816 5.754687,-0.249928 0,-0.136605 -0.544017,-0.329952 -1.208926,-0.429662 -1.983549,-0.297451 -27.101955,-0.543116 -27.101709,-0.265061 1.21e-4,0.136142 0.254432,0.518127 0.565137,0.848857 0.514183,0.547323 0.745858,0.590853 2.579687,0.484709 1.108123,-0.06414 4.634146,-0.177535 7.835604,-0.251988 z m 26.572443,-0.03211 c 0.0634,-0.06336 -0.006,-0.2365 -0.15437,-0.384762 -0.39372,-0.393717 -5.972021,-0.209189 -6.108435,0.202065 -0.159748,0.481606 5.790325,0.65518 6.262805,0.182697 z M 61.783544,91.70851 c 0.06212,-0.100507 0.01615,-0.33935 -0.102153,-0.530764 -0.171023,-0.276723 -1.753009,-0.335865 -7.721604,-0.288671 -4.128582,0.03264 -9.054325,0.146041 -10.946096,0.251994 -3.318362,0.18585 -3.360323,0.195362 -1.190625,0.269893 13.869617,0.476428 19.795331,0.564762 19.960478,0.297548 z m 55.108546,-0.249638 c 2.21562,-0.111943 4.09773,-0.272852 4.18245,-0.357575 0.28284,-0.28284 -8.68807,-0.552005 -12.68681,-0.380657 -2.17074,0.09302 -4.00115,0.223477 -4.06758,0.289911 -0.0664,0.06643 -0.0433,0.322768 0.0515,0.569631 0.18429,0.480256 0.71611,0.475103 12.52049,-0.12131 z M 42.55067,87.957969 c -0.517274,-0.301285 -0.600079,-1.080417 -0.195222,-1.836899 0.328298,-0.613429 1.86499,-0.939332 2.592715,-0.549866 0.460858,0.246644 0.495856,0.389971 0.252597,1.03444 -0.155313,0.41147 -0.631292,0.948371 -1.057732,1.193114 -0.895092,0.513712 -0.970731,0.521275 -1.592358,0.159211 z m 9.114896,-1.619224 c -0.174625,-0.174625 -0.3175,-0.469861 -0.3175,-0.656081 0,-0.402103 1.871363,-1.407669 2.619678,-1.407669 0.645834,0 1.058694,0.582028 0.536021,0.755654 -0.207666,0.06898 -0.693234,0.462963 -1.07904,0.87551 -0.757163,0.809643 -1.258757,0.932988 -1.759159,0.432586 z"
         id="path838"
         inkscape:connector-curvature="0" />
      <path
         style="fill:#2e2b29;stroke-width:0.26458332;fill-opacity:1"
         d="m 37.589737,105.37552 -4e-6,-13.692192 3.505729,0.01723 c 1.928151,0.0095 6.896115,0.110885 11.039919,0.225352 8.027618,0.221753 9.796018,0.153717 9.796018,-0.376886 0,-0.919893 -0.691704,-1.004303 -7.880251,-0.961642 -3.887789,0.02307 -9.182066,0.117922 -11.765061,0.210778 -4.696354,0.168829 -4.696354,0.168829 -4.696354,-0.497672 0,-0.604766 0.128663,-0.683189 1.389062,-0.846665 0.763985,-0.09909 6.150875,-0.237859 11.970867,-0.308374 7.88283,-0.09551 10.731733,-0.04797 11.169626,0.186384 0.461067,0.246756 0.676091,0.241336 0.997165,-0.02513 0.329118,-0.273143 3.19584,-0.298185 14.627247,-0.127776 7.81985,0.116572 14.545328,0.19575 14.94551,0.175951 0.400183,-0.0198 0.935964,-0.05108 1.190625,-0.06951 0.254662,-0.01843 1.26719,0.106238 2.250062,0.277048 0.987367,0.17159 2.704129,0.243794 3.836458,0.161355 1.127185,-0.08207 2.376835,-0.142717 2.777025,-0.134783 2.77772,0.05507 7.27868,0.03942 14.55211,-0.05062 8.40055,-0.10399 8.40055,-0.10399 8.40052,0.657741 -3e-5,0.761731 -3e-5,0.761731 -2.31513,0.585253 -4.11367,-0.31358 -7.78139,-0.436512 -11.9724,-0.401282 -7.37745,0.06202 -7.26598,0.05187 -7.35496,0.669499 -0.16873,1.171247 0.33797,1.245886 6.22807,0.917426 8.57823,-0.478363 13.94443,-0.642523 14.71133,-0.450043 0.70306,0.176456 0.70306,0.176456 0.70306,13.863608 l 10e-6,13.68714 H 81.642864 37.58974 Z M 68.810565,92.07089 c 1.236927,-0.02369 6.925932,-0.06113 12.642233,-0.08322 9.096904,-0.03515 10.412809,-0.09106 10.549874,-0.448243 0.08613,-0.224449 0.0791,-0.485583 -0.01561,-0.580299 -0.421402,-0.421402 -28.9979,-0.958793 -28.997505,-0.545308 9.8e-5,0.102136 0.439736,0.612595 0.976974,1.134354 0.843376,0.819076 1.087319,0.922504 1.785938,0.757216 0.445024,-0.10529 1.821169,-0.210816 3.058096,-0.2345 z m 32.411455,-0.519854 c 0,-0.495371 -0.20136,-0.533951 -3.152989,-0.604091 -3.187822,-0.07575 -3.802727,0.0751 -3.501888,0.859075 0.138695,0.361429 0.63377,0.412049 3.408572,0.348514 3.045145,-0.06972 3.246305,-0.107122 3.246305,-0.603498 z"
         id="path836"
         inkscape:connector-curvature="0" />
      <path
         style="fill:#3e3a38;stroke-width:0.26458332;fill-opacity:1"
         d="M 37.589733,105.34573 V 91.772084 l 1.389062,0.107015 c 2.691374,0.207348 22.743667,0.463505 23.017095,0.294031 0.157918,-0.09788 0.206418,-0.524318 0.112844,-0.992188 -0.09026,-0.451292 -0.07067,-0.820531 0.04353,-0.820531 0.1142,0 0.839537,0.539381 1.61186,1.198624 1.0814,0.923066 1.533962,1.156396 1.968561,1.014943 0.728279,-0.237042 3.585728,-0.295945 16.092852,-0.331735 7.470814,-0.02138 10.288259,-0.112479 10.427118,-0.337155 0.104648,-0.169323 0.265192,-0.674201 0.356767,-1.121951 0.19708,-0.963612 1.311378,-1.521751 1.961279,-0.982382 0.345128,0.286432 0.341606,0.412501 -0.0296,1.05929 -0.231743,0.403789 -0.343792,0.936281 -0.248997,1.183315 0.152191,0.396601 0.583155,0.44051 3.683429,0.375289 3.511077,-0.07386 3.511077,-0.07386 3.511077,-1.099404 0,-1.736085 1.78623,-2.345409 2.14354,-0.731212 0.32194,1.454407 0.42158,1.627326 1.02493,1.778759 0.34082,0.08554 2.9225,0.01755 5.73706,-0.151094 2.81456,-0.168642 7.40934,-0.373913 10.21061,-0.456159 l 5.09323,-0.149537 v 13.661328 13.66132 l -44.053126,-0.007 -44.053123,-0.007 z m 75.387647,7.96074 c 0.0161,-1.09584 0.10629,-1.29666 0.68006,-1.51481 0.85234,-0.32406 0.84082,-0.88354 -0.0313,-1.51881 -0.381,-0.27754 -0.73234,-0.79349 -0.78077,-1.14655 -0.0484,-0.35306 -0.16105,-1.29677 -0.25029,-2.09714 -0.41464,-3.719 -0.73441,-3.42362 -0.95398,0.88123 -0.1544,3.02712 0.0996,5.54858 0.72233,7.16922 0.19341,0.50337 0.19841,0.50337 0.39561,0 0.10984,-0.2804 0.20809,-1.07832 0.21831,-1.77314 z"
         id="path834"
         inkscape:connector-curvature="0" />
      <path
         style="fill:#373331;stroke-width:0.26458332;fill-opacity:1"
         d="m 42.418379,118.73736 c -4.828646,-0.0785 -4.828646,-0.0785 -4.828646,-1.51572 0,-1.42049 0.01003,-1.43865 0.859896,-1.55734 3.610872,-0.50425 4.899641,-0.76998 5.434665,-1.12054 0.33879,-0.22198 0.817282,-0.3579 1.063315,-0.30204 0.757874,0.17208 2.407151,-0.80489 2.590233,-1.53435 0.125935,-0.50176 0.249851,-0.59658 0.504005,-0.38565 0.51342,0.4261 0.924969,2.40651 0.924969,4.45104 0,1.6807 -0.05046,1.84987 -0.595313,1.99589 -0.327421,0.0877 -0.714375,0.13425 -0.859895,0.10335 -0.145521,-0.0309 -2.437474,-0.0915 -5.093229,-0.13464 z m 65.489011,0.0483 c -0.0823,-0.0823 -12.51445,-0.14243 -27.626913,-0.13354 -15.112462,0.009 -27.864156,-0.0561 -28.337099,-0.14433 -0.567316,-0.10587 -0.859895,-0.3125 -0.859895,-0.60728 0,-0.24574 -0.114713,-0.56152 -0.254917,-0.70172 -0.372328,-0.37233 -0.607609,-3.09329 -0.306051,-3.53938 0.351303,-0.51968 2.348527,-0.39447 3.795235,0.23793 0.789645,0.34518 2.050369,0.53929 4.174066,0.64267 1.673489,0.0815 3.419072,0.22273 3.879071,0.31394 1.144775,0.22697 1.584186,-0.52843 1.042466,-1.79213 -1.650373,-3.84992 -1.707392,-4.06761 -2.030613,-7.75249 -0.249605,-2.84563 -0.438311,-3.85042 -0.814168,-4.33516 -0.269091,-0.34705 -0.489256,-0.77082 -0.489256,-0.94173 0,-0.170898 -0.662219,-0.882445 -1.471598,-1.581211 -2.09935,-1.812448 -2.789853,-1.931054 -12.154444,-2.087751 -4.365624,-0.07305 -8.145859,-0.216214 -8.40052,-0.318144 -0.381745,-0.152796 -0.463021,-0.524264 -0.463021,-2.116218 0,-1.930891 0,-1.930891 0.992187,-1.809118 1.394766,0.171182 23.145174,0.55449 23.547916,0.414985 0.181901,-0.06301 0.330729,-0.399478 0.330729,-0.747711 0,-0.873724 0.419259,-0.794021 1.644105,0.312554 0.699881,0.6323 1.192761,0.887862 1.487276,0.771163 0.536361,-0.212529 9.267087,-0.433351 19.244087,-0.486731 7.384817,-0.03951 7.384817,-0.03951 7.93428,-1.097616 0.302202,-0.581957 0.757185,-1.098108 1.011071,-1.147002 0.395123,-0.07609 0.435901,0.04814 0.283115,0.862567 -0.300538,1.601996 0.0036,1.739414 3.850232,1.739414 3.712579,0 3.868399,-0.06168 4.013279,-1.588562 0.0742,-0.782349 0.18808,-0.924979 0.73837,-0.924979 0.52595,0 0.68546,0.170367 0.83247,0.889161 0.36465,1.782944 0.31282,1.772855 7.04611,1.371648 3.31259,-0.197382 8.07672,-0.40206 10.58696,-0.45484 l 4.56406,-0.09596 v 2.543262 c 0,2.543263 0,2.543263 -1.38906,2.356788 -0.76399,-0.102561 -1.75741,-0.338009 -2.20761,-0.523217 -2.01625,-0.829467 -6.79512,-0.668525 -8.14101,0.274171 -0.66473,0.465598 -2.49294,0.491395 -6.82285,0.09627 -1.74541,-0.159276 -3.24076,-0.222312 -3.32299,-0.140079 -0.0822,0.08223 -0.37148,1.217289 -0.64276,2.522347 -0.61031,2.936009 -0.90377,3.728159 -1.3811,3.728159 -0.52044,0 -0.61242,-0.56768 -0.54685,-3.374933 0.056,-2.397996 -0.15265,-3.080267 -0.75716,-2.475763 -0.16194,0.161945 -0.506749,0.294446 -0.766234,0.294446 -0.301792,0 -0.729922,0.500522 -1.188157,1.389063 -0.614211,1.190989 -0.712036,1.688877 -0.686032,3.491617 0.03232,2.2405 -0.195284,2.9424 -1.361517,4.19871 -1.513663,1.63058 -2.566554,5.09578 -1.709391,5.62583 0.528651,0.3269 4.04041,0.1251 5.761701,-0.33109 0.81445,-0.21586 2.82973,-0.4879 4.47842,-0.60455 1.64868,-0.11665 3.10152,-0.316 3.22853,-0.44301 0.35656,-0.35656 1.84088,-4.6519 1.84235,-5.33142 7.9e-4,-0.3321 0.19402,-1.04648 0.42956,-1.5875 0.42825,-0.98369 0.42825,-0.98369 0.67197,-0.18994 0.13404,0.43656 0.21407,2.46062 0.17783,4.49791 -0.0525,2.95375 0.0598,4.39336 0.55427,7.10613 0.52095,2.85778 0.56155,3.43907 0.25381,3.63397 -0.40169,0.25439 -4.02354,0.33118 -4.26431,0.0904 z m -26.142534,-3.80875 c 0.363069,-0.36307 0.539459,-0.8855 0.539459,-1.59779 0,-0.58208 0.119062,-1.05833 0.264583,-1.05833 0.145521,0 0.264583,0.41112 0.264583,0.91359 0,0.50248 0.135287,1.21051 0.300639,1.57342 0.300638,0.65983 0.300638,0.65983 4.960937,0.60776 4.660299,-0.0521 4.660299,-0.0521 4.569489,-1.23738 -0.04994,-0.65192 -0.255625,-1.50403 -0.457068,-1.89357 -0.20144,-0.38955 -0.613537,-1.6421 -0.915765,-2.78344 -0.302228,-1.14135 -0.65119,-2.3133 -0.775467,-2.60434 -0.37379,-0.87537 -1.088308,-3.09571 -1.419133,-4.4099 -0.170976,-0.6792 -0.400081,-1.32412 -0.509122,-1.43316 -0.109042,-0.10904 -0.19826,-0.78563 -0.19826,-1.503538 0,-1.131655 -0.119658,-1.424936 -0.899583,-2.204861 -0.868352,-0.868351 -0.970801,-0.899583 -2.95094,-0.899583 -1.721964,0 -2.316689,0.125364 -3.703767,0.780728 -1.501918,0.709622 -1.694987,0.896374 -2.119876,2.05052 -0.645912,1.754524 -0.842804,1.892604 -1.05859,0.742364 -0.135858,-0.724187 -0.398828,-1.109796 -0.970788,-1.423529 -0.431451,-0.23666 -1.322909,-0.778539 -1.981017,-1.204176 -1.176235,-0.760738 -1.223677,-0.768283 -2.792863,-0.444174 -1.761474,0.363827 -3.721428,1.768771 -4.718801,3.382549 -0.587576,0.95072 -0.551373,1.57726 0.221115,3.82669 0.354401,1.032 0.372472,1.47672 0.112895,2.77813 -0.169979,0.85219 -0.551656,1.8795 -0.848172,2.2829 -0.36345,0.49447 -0.620689,1.44282 -0.789443,2.91042 -0.312203,2.71512 -0.323204,2.46716 0.129562,2.91993 0.315073,0.31507 1.712467,0.39145 7.794915,0.42606 7.134791,0.0406 7.431125,0.0221 7.950478,-0.49729 z m 31.955364,3.49544 c -0.0554,-0.10914 -0.12899,-0.98667 -0.16352,-1.95008 -0.0525,-1.46385 0.0137,-1.781 0.40299,-1.93037 0.25617,-0.0983 3.00163,-0.16059 6.10103,-0.13841 l 5.63526,0.0403 v 2.08849 2.0885 h -5.93751 c -3.26563,0 -5.98284,-0.0893 -6.03825,-0.19844 z"
         id="path832"
         inkscape:connector-curvature="0" />
      <path
         style="fill:#352216;stroke-width:0.26458332;fill-opacity:1"
         d="m 47.180879,118.49864 c -0.181902,-0.0751 -0.33073,-0.3029 -0.33073,-0.50628 0,-0.20338 -0.302841,-0.44579 -0.672982,-0.53869 -0.863528,-0.21673 -0.697746,-0.72811 0.292123,-0.9011 0.747779,-0.13068 0.825683,-0.25177 1.360802,-2.11508 0.265193,-0.92341 0.628801,0.59433 0.553542,2.31056 -0.07884,1.79785 -0.301835,2.12242 -1.202755,1.75059 z m 60.604311,-0.0368 c -0.23078,-0.14672 -0.24782,-0.5044 -0.0632,-1.32623 0.19544,-0.86985 0.16258,-1.29988 -0.14473,-1.89414 -0.37464,-0.72447 -0.35955,-0.814 0.2616,-1.55219 0.36254,-0.43085 0.65916,-1.08447 0.65916,-1.45248 0,-0.36801 0.29766,-1.02286 0.66146,-1.45521 0.3638,-0.43236 0.66568,-1.00704 0.67084,-1.27707 0.005,-0.27004 0.17953,-0.78863 0.3875,-1.15243 0.20796,-0.3638 0.3998,-1.19724 0.4263,-1.85209 0.0375,-0.92557 0.0919,-0.74887 0.24457,0.79375 0.10802,1.09141 0.13781,2.46186 0.0662,3.04545 -0.0716,0.58359 0.0145,1.59562 0.19128,2.24896 0.42121,1.55652 1.02926,5.63041 0.87825,5.88424 -0.15431,0.25938 -3.82909,0.25022 -4.23928,-0.0106 z m -14.220622,-3.8259 c -0.05512,-0.1819 -0.350689,-1.40229 -0.656815,-2.71198 -0.960127,-4.10769 -1.134004,-4.7446 -1.480743,-5.42396 -0.247441,-0.48481 -0.273365,-1.05008 -0.09707,-2.11666 0.132289,-0.80037 0.254111,-3.02119 0.270714,-4.935168 0.02357,-2.716879 -0.05768,-3.605397 -0.370496,-4.052012 -0.220377,-0.314631 -0.34343,-0.791 -0.27345,-1.058598 0.08246,-0.315347 -0.0442,-0.538246 -0.359976,-0.633482 -1.195687,-0.360611 -11.067634,-0.145123 -11.462967,0.250216 -0.157615,0.157621 -0.291161,0.871996 -0.296764,1.5875 -0.01152,1.470952 -0.41796,3.020709 -0.79221,3.020709 -0.402199,0 -0.725422,-1.062023 -0.905902,-2.976563 -0.100642,-1.067597 -0.292915,-1.795932 -0.478028,-1.810786 -1.268307,-0.101774 -5.389359,0.114573 -5.606529,0.294331 -0.148375,0.122816 -0.803219,0.261253 -1.455208,0.307639 -0.998879,0.07107 -1.1988,0.178482 -1.270365,0.682569 -0.04739,0.33378 -0.413335,0.768056 -0.827834,0.982402 -0.771652,0.399037 -1.07161,0.886702 -1.07161,1.742198 0,0.275785 -0.27818,0.683698 -0.618175,0.906472 -0.605343,0.396635 -0.615762,0.475044 -0.501906,3.776413 0.102676,2.97721 0.05005,3.54641 -0.450149,4.86862 -0.732539,1.93636 -1.150713,2.30229 -1.713224,1.4992 -0.231391,-0.33036 -0.420712,-1.03949 -0.420712,-1.57584 0,-1.97136 -0.826359,-7.549043 -1.331671,-8.988404 -0.286227,-0.815305 -0.520412,-1.672449 -0.520412,-1.904764 0,-0.581593 -1.440265,-1.562631 -3.122571,-2.126944 -1.556045,-0.521959 -8.767141,-0.874706 -16.125866,-0.788832 -3.897944,0.04549 -4.034896,0.0288 -4.034896,-0.491704 0,-0.42586 0.124778,-0.508016 0.595312,-0.391966 0.327422,0.08075 4.28625,0.170136 8.797396,0.19863 4.511146,0.02849 9.624375,0.131722 11.362732,0.229397 3.492242,0.196224 4.374516,-0.0014 4.377912,-0.980506 0.0011,-0.327422 0.07432,-0.595312 0.162624,-0.595312 0.08831,0 0.767987,0.483641 1.5104,1.074759 1.021749,0.813529 1.481121,1.026793 1.889961,0.877417 0.431033,-0.157485 5.055722,-0.40278 11.784912,-0.625078 0.363802,-0.01202 3.557053,0.04249 7.096111,0.121121 6.434653,0.142971 6.434653,0.142971 7.14375,-0.596726 0.390004,-0.406833 0.850924,-0.97321 1.024265,-1.258615 0.294749,-0.485297 0.31618,-0.472582 0.33073,0.196235 0.0086,0.393335 0.154492,1.02008 0.324302,1.392767 0.265748,0.583254 0.427323,0.655367 1.160322,0.517855 0.501396,-0.09406 0.92505,-0.04089 1.030235,0.129302 0.128884,0.208538 0.331861,0.207062 0.728657,-0.0053 0.343138,-0.183642 1.279356,-0.237249 2.489147,-0.142525 1.784569,0.139727 1.971439,0.105714 2.344349,-0.42669 0.22287,-0.318187 0.40521,-0.977478 0.40521,-1.465092 0,-0.689285 0.0993,-0.867444 0.44631,-0.800619 0.24547,0.04727 0.54332,0.442956 0.66188,0.879296 0.11856,0.43634 0.42374,1.034632 0.67817,1.329538 0.44087,0.511001 0.65528,0.527758 4.56364,0.356646 2.25558,-0.09875 7.04784,-0.269691 10.64948,-0.379868 6.54844,-0.200321 6.54844,-0.200321 6.54844,0.485109 0,0.68543 0,0.68543 -7.34219,0.637425 -4.0382,-0.0264 -8.7114,0.02348 -10.38489,0.110842 -1.67349,0.08737 -3.17574,0.05613 -3.33834,-0.06941 -0.38825,-0.299773 -0.79492,0.226321 -0.95348,1.233479 -0.13405,0.851505 -1.31954,5.483277 -1.45032,5.666487 -0.25354,0.35519 -0.39517,-0.52577 -0.51131,-3.180421 -0.0719,-1.643847 -0.18121,-3.070455 -0.24288,-3.170239 -0.18799,-0.304177 -3.652417,0.07769 -4.253492,0.468844 -0.486749,0.316754 -0.584335,0.311953 -0.71759,-0.0353 -0.08863,-0.230986 -0.327268,-0.335507 -0.561118,-0.245771 -0.488936,0.187624 -0.538556,0.805288 -0.07705,0.959124 0.538064,0.179355 0.606941,4.371315 0.09207,5.603573 -0.250759,0.60016 -0.421913,1.76637 -0.421913,2.87487 0,1.2353 -0.126471,2.00613 -0.374536,2.28279 -0.789461,0.88046 -1.265693,3.68038 -1.069986,6.29077 0.13389,1.78584 0.101008,2.46131 -0.119819,2.46131 -0.167391,0 -0.349451,-0.14883 -0.404572,-0.33073 z"
         id="path830"
         inkscape:connector-curvature="0" />
      <path
         style="fill:#1a1a1a;stroke-width:0.26458332"
         d="m 109.33064,118.43711 c -0.27926,-0.17795 -0.29176,-0.352 -0.0568,-0.79097 0.28042,-0.52397 0.34413,-0.53469 0.92316,-0.15529 0.611,0.40034 0.62418,0.38984 0.74763,-0.59531 0.21845,-1.74321 -0.60429,-2.21646 -1.30365,-0.74988 -0.61104,1.28136 -1.03448,1.35547 -1.03371,0.18093 2.6e-4,-0.52968 -0.0964,-1.17141 -0.21487,-1.42607 -0.16879,-0.36266 -0.0947,-0.46303 0.34197,-0.46303 0.48432,0 0.55747,-0.15623 0.55747,-1.19062 0,-1.28585 0.39675,-1.57336 0.78004,-0.56525 0.13077,0.34395 0.4128,0.69254 0.62674,0.77464 0.22546,0.0865 0.45644,0.65783 0.54944,1.359 0.0883,0.66535 0.23197,1.74552 0.31938,2.40036 0.15192,1.13806 0.12951,1.19062 -0.50752,1.19062 -0.36656,0 -0.82503,0.0583 -1.01883,0.12952 -0.19381,0.0712 -0.51349,0.0268 -0.71042,-0.0986 z M 93.363186,108.4747 c -0.08507,-0.1402 -0.235614,-1.68366 -0.334544,-3.42991 -0.09893,-1.74625 -0.281186,-3.53219 -0.405006,-3.96875 -0.12382,-0.43657 -0.279628,-2.41069 -0.346239,-4.386945 -0.109024,-3.234536 -0.07108,-3.657087 0.380169,-4.233333 0.497195,-0.634922 0.504645,-0.635827 0.913768,-0.110976 0.354396,0.454647 0.401262,1.497929 0.332787,7.408334 -0.04383,3.78354 -0.0043,6.99823 0.08778,7.14375 0.09211,0.14552 0.02312,0.61742 -0.153284,1.04867 -0.176421,0.43124 -0.390366,0.66936 -0.475435,0.52916 z m -30.2318,-3.36377 c -0.104809,-0.61846 -0.239729,-2.43416 -0.299821,-4.03489 -0.06009,-1.600733 -0.155791,-4.07128 -0.212662,-5.490108 -0.05696,-1.421104 0.0031,-2.579687 0.133713,-2.579687 0.130414,0 0.237116,-0.238125 0.237116,-0.529167 0,-0.707137 0.325001,-0.666798 1.310796,0.162695 0.550201,0.462964 0.773166,0.846455 0.673923,1.159136 -0.08157,0.257001 -0.253862,1.761367 -0.382873,3.343035 -0.414787,5.085206 -0.892401,9.093466 -1.083559,9.093466 -0.102339,0 -0.271824,-0.50601 -0.376633,-1.12448 z m 38.823554,-9.109403 c -0.20574,-1.83599 -0.18481,-2.524143 0.0981,-3.226032 0.19779,-0.490714 0.35962,-1.175323 0.35962,-1.521354 0,-0.34603 0.11906,-0.629146 0.26458,-0.629146 0.14552,0 0.26458,0.211633 0.26458,0.470295 0,0.258662 0.181,0.7287 0.40221,1.044529 0.28642,0.408919 0.35437,0.901933 0.23602,1.712517 -0.2127,1.456737 -0.90136,3.983873 -1.16249,4.265857 -0.1106,0.119437 -0.31878,-0.833063 -0.46261,-2.116666 z"
         id="path828"
         inkscape:connector-curvature="0" />
    </g>
  </g>
</svg>
